<svg width="68" height="46" viewBox="0 0 68 46" fill="none" xmlns="http://www.w3.org/2000/svg">
<path d="M49.12 0.327999V45H40.16V15.944L28.192 45H21.408L9.376 15.944V45H0.416V0.327999H10.592L24.8 33.544L39.008 0.327999H49.12ZM61.9465 45.448C60.3252 45.448 58.9812 44.9573 57.9145 43.976C56.8905 42.952 56.3785 41.6933 56.3785 40.2C56.3785 38.7067 56.8905 37.4693 57.9145 36.488C58.9812 35.464 60.3252 34.952 61.9465 34.952C63.5252 34.952 64.8265 35.464 65.8505 36.488C66.8745 37.4693 67.3865 38.7067 67.3865 40.2C67.3865 41.6933 66.8745 42.952 65.8505 43.976C64.8265 44.9573 63.5252 45.448 61.9465 45.448Z" fill="#60A5FA"/>
</svg>
